<svg width="193" height="41" viewBox="0 0 193 41" fill="none" xmlns="http://www.w3.org/2000/svg">
<g clip-path="url(#clip0_514_4820)">
<path d="M22.3691 7.38326V31.7438C22.3691 34.3219 22.4593 36.0439 22.643 36.9098C22.927 38.1825 23.6819 39.0057 24.9113 39.3829C25.5594 39.5961 26.5148 39.7437 27.7809 39.8225V40.3112H6.88176V39.8225C8.14453 39.7405 9.09996 39.5929 9.74805 39.3829C10.9774 38.9926 11.7357 38.1661 12.0164 36.9098C12.2168 36.0603 12.317 34.3383 12.317 31.7438V7.38326C10.7536 7.71126 9.41732 8.17702 8.30154 8.78054C4.72704 10.7223 2.12466 12.8248 0.497758 16.4H0L1.49662 4.05406C2.32844 4.82158 3.21706 5.2611 4.1658 5.3759C5.21477 5.5071 29.3945 5.49726 30.5737 5.34966C31.4223 5.23486 32.2875 4.8019 33.1661 4.05078L34.5124 16.3967H34.0146C32.8988 13.8186 31.1984 12.277 28.9034 10.4665C27.4235 9.30862 26.0104 8.4755 24.6641 7.9671C24.1162 7.7703 23.3512 7.57678 22.3691 7.37998V7.38326Z" fill="#FFA38B"/>
<path d="M60.623 36.595L60.9471 36.9853C59.8012 37.9168 58.7957 38.6483 57.9305 39.1895C56.0363 40.3965 54.2156 41 52.4685 41C50.7213 41 49.385 40.3801 48.453 39.1403C47.9719 38.4875 47.5978 37.5167 47.3305 36.2276C46.315 37.5987 45.3028 38.6187 44.2872 39.2879C42.54 40.4162 40.4955 40.9771 38.1537 40.9771C35.8119 40.9771 33.7975 40.3243 32.4178 39.0189C31.3856 38.0546 30.8711 36.8803 30.8711 35.4929C30.8711 33.8135 31.6361 32.3671 33.1661 31.16C35.3943 29.3954 40.108 27.4864 47.3038 25.4299V22.8091C47.3038 19.7555 47.08 17.8727 46.6323 17.1544C46.1012 16.3049 45.3195 15.8818 44.2872 15.8818C43.2549 15.8818 42.383 16.1901 41.6681 16.8133C41.0367 17.3512 40.6058 18.1187 40.3719 19.1159C40.255 19.621 40.098 20.6673 39.8976 22.2483C39.6971 23.7177 39.206 24.869 38.4277 25.7021C37.362 26.8599 36.0658 27.4405 34.5358 27.4405C33.4534 27.4405 32.5815 27.1059 31.9167 26.4368C31.2686 25.7841 30.9446 24.9444 30.9446 23.9145C30.9446 21.8907 32.3978 20.0539 35.3075 18.4041C36.9878 17.4431 39.0657 16.6001 41.5412 15.8818C44.501 14.9995 47.227 14.5599 49.7191 14.5599C51.6634 14.5599 53.2101 15.0257 54.3559 15.9572C55.1377 16.6099 55.6521 17.3447 55.9027 18.1614C56.1866 19.0437 56.3269 20.1622 56.3269 21.5168V33.0493C56.3269 34.6663 56.4439 35.7258 56.6777 36.2309C56.9917 36.9328 57.6264 37.2838 58.5719 37.2838C59.1197 37.2838 59.8012 37.0542 60.6163 36.5983L60.623 36.595ZM47.3071 26.017C45.6602 26.5385 44.4409 27.0797 43.6424 27.634C42.0623 28.7263 41.2739 30.4811 41.2739 32.8984C41.2739 36.0013 42.2627 37.5495 44.2404 37.5495C45.1056 37.5495 45.8373 37.2215 46.4352 36.5687C47.0165 35.9324 47.3071 35.0009 47.3071 33.7775V26.017Z" fill="#FFA38B"/>
<path d="M70.3059 15.0453C69.5242 15.639 69.2102 16.5049 69.2102 17.4692C69.2102 19.4602 71.2046 22.1236 74.415 23.1535L77.9059 24.2785C80.2845 25.0296 82.1285 25.9513 83.4414 27.0436C84.9046 28.267 85.6362 29.8906 85.6362 31.9144C85.6362 33.7741 85.0616 35.4568 83.9158 36.959C82.9002 38.2973 81.4203 39.3272 79.4761 40.0455C77.779 40.6654 76.0519 40.977 74.288 40.977C72.6578 40.977 70.3226 40.5539 67.2793 39.7044C65.6491 39.2485 64.2126 38.7925 62.9665 38.3333L62.4688 28.3195H62.9665C64.246 31.242 65.7259 33.6757 67.4062 35.6175C70.0821 38.7499 72.6945 40.3177 75.2368 40.3177C76.4494 40.3177 77.4149 39.934 78.1298 39.1665C78.711 38.5629 79.0017 37.7462 79.0017 36.7163C79.0017 35.6077 78.6676 34.7253 78.0028 34.0726C77.2712 33.3707 76.0084 32.7016 74.2112 32.0653L71.6923 31.1829C68.7325 30.1399 66.5143 29.0214 65.0344 27.8275C63.4208 26.5384 62.6157 24.8558 62.6157 22.7828C62.6157 20.2868 63.7883 18.2466 66.1301 16.6624C67.3695 15.8227 68.7626 15.1798 70.3427 14.9043C70.3961 14.8944 70.493 14.8977 70.3026 15.0453H70.3059Z" fill="#FFA38B"/>
<path d="M132.275 14.5829C135.9 14.5829 139.057 15.6948 141.753 17.9121C144.863 20.4902 146.416 23.8456 146.416 27.9751C146.416 31.8291 144.863 35.0501 141.753 37.6478C139.077 39.8684 135.926 40.977 132.302 40.977C128.677 40.977 125.527 39.8651 122.851 37.6478C119.741 35.0534 118.188 31.7635 118.188 27.7816C118.188 23.7997 119.741 20.4442 122.851 17.9154C125.594 15.6948 128.737 14.5862 132.278 14.5862L132.275 14.5829ZM132.275 15.2454C130.929 15.2454 129.913 15.931 129.232 17.302C128.45 18.8862 128.059 22.3794 128.059 27.7816C128.059 33.5774 128.534 37.2182 129.482 38.7007C130.164 39.7766 131.113 40.3178 132.325 40.3178C133.671 40.3178 134.687 39.6322 135.369 38.2612C136.15 36.6934 136.541 33.233 136.541 27.88C136.541 22.0219 136.067 18.3483 135.118 16.8625C134.436 15.7866 133.488 15.2454 132.275 15.2454Z" fill="#FFA38B"/>
<path d="M144.742 6.60262L144.691 6.08766C149.779 5.02494 154.259 3.84414 158.134 2.5387V33.9021C158.134 35.565 158.201 36.7753 158.335 37.5265C158.485 38.4908 158.949 39.1337 159.731 39.4617C160.195 39.6585 160.91 39.7798 161.876 39.829V40.3177H145.366V39.829C146.946 39.747 147.969 39.3797 148.433 38.7269C148.767 38.2546 148.974 37.4871 149.058 36.4244C149.091 35.9029 149.108 35.0632 149.108 33.9021V13.3102C149.108 11.5456 149.001 10.2598 148.784 9.4431C148.5 8.46238 147.969 7.7211 147.187 7.21598C146.622 6.85846 145.807 6.65182 144.742 6.60262Z" fill="#FFA38B"/>
<path d="M192.678 36.595L193.002 36.9853C191.856 37.9168 190.85 38.6483 189.985 39.1895C188.091 40.3965 186.27 41 184.523 41C182.776 41 181.44 40.3801 180.508 39.1403C180.027 38.4875 179.652 37.5167 179.385 36.2276C178.37 37.5987 177.357 38.6187 176.342 39.2879C174.595 40.4162 172.55 40.9771 170.208 40.9771C167.867 40.9771 165.852 40.3243 164.472 39.0189C163.44 38.0546 162.926 36.8803 162.926 35.4929C162.926 33.8135 163.691 32.3671 165.221 31.16C167.449 29.3954 172.163 27.4864 179.358 25.4299V22.8091C179.358 19.7555 179.135 17.8727 178.687 17.1544C178.156 16.3049 177.374 15.8818 176.342 15.8818C175.31 15.8818 174.438 16.1901 173.723 16.8133C173.091 17.3512 172.66 18.1187 172.427 19.1159C172.31 19.621 172.153 20.6673 171.952 22.2483C171.752 23.7177 171.261 24.869 170.482 25.7021C169.417 26.8599 168.121 27.4405 166.59 27.4405C165.508 27.4405 164.636 27.1059 163.971 26.4368C163.323 25.7841 162.999 24.9444 162.999 23.9145C162.999 21.8907 164.452 20.0539 167.362 18.4041C169.043 17.4431 171.12 16.6001 173.596 15.8818C176.556 14.9995 179.282 14.5599 181.774 14.5599C183.718 14.5599 185.265 15.0257 186.411 15.9572C187.192 16.6099 187.707 17.3447 187.957 18.1614C188.241 19.0437 188.382 20.1622 188.382 21.5168V33.0493C188.382 34.6663 188.499 35.7258 188.732 36.2309C189.046 36.9328 189.681 37.2838 190.627 37.2838C191.174 37.2838 191.856 37.0542 192.671 36.5983L192.678 36.595ZM179.362 26.017C177.715 26.5385 176.496 27.0797 175.697 27.634C174.117 28.7263 173.329 30.4811 173.329 32.8984C173.329 36.0013 174.317 37.5495 176.295 37.5495C177.16 37.5495 177.892 37.2215 178.49 36.5687C179.071 35.9324 179.362 35.0009 179.362 33.7775V26.017Z" fill="#FFA38B"/>
<path d="M116.053 39.4617C115.405 39.1042 115.037 38.481 114.957 37.6019C114.924 37.228 114.897 36.3457 114.884 34.9582V21.6874C114.884 20.5295 114.8 19.516 114.633 18.6501C114.466 17.817 114.102 17.0593 113.538 16.3738C112.589 15.2323 111.176 14.6616 109.298 14.6616C107.204 14.6616 105.026 15.4062 102.764 16.8887C101.748 17.5414 100.502 18.4631 99.0224 19.6538V0C97.0781 0.6396 95.0403 1.2464 92.9023 1.81712C90.5772 2.43704 88.1418 3.03728 85.5896 3.57192V3.57848C85.0116 3.69984 84.4203 3.86384 83.8257 4.08032C82.5496 4.5428 81.4338 5.15944 80.5418 5.85152V5.84496C80.4683 5.90072 80.3982 5.95976 80.328 6.01552C80.318 6.02208 80.308 6.02864 80.3013 6.03848C79.9572 6.314 79.6165 6.59936 79.2857 6.90768C76.69 9.3316 75.2536 12.031 74.9796 15.0027C74.7391 17.771 75.4406 20.0047 77.0943 21.7103C78.0029 22.6484 79.0719 23.1962 80.3046 23.3569C81.691 23.5471 82.917 23.1437 83.9794 22.1531C85.0818 21.1232 85.5862 19.9096 85.4927 18.5156C85.4192 17.3545 84.9248 16.3016 84.0161 15.3635C83.5417 14.8748 82.75 14.3205 81.6342 13.6973C80.6888 13.1725 80.004 12.6903 79.5831 12.2541C79.0385 11.6932 78.7279 11.0667 78.6443 10.3714C78.651 10.3812 78.6577 10.3943 78.6644 10.4042C78.5207 9.50544 78.8748 8.53128 79.5897 7.65552C79.6465 7.59648 79.7033 7.53744 79.7635 7.4784C80.2044 7.06512 80.9828 6.4124 80.9828 6.4124L80.9728 6.40256C81.544 6.00896 82.1955 5.66784 82.9204 5.40544C85.9203 4.32304 88.9369 4.99872 89.6752 6.91752C89.889 7.7572 89.9959 11.6309 89.9959 13.389V33.9808C89.9959 35.0894 89.9692 35.9324 89.9224 36.5031C89.8389 37.5658 89.6151 38.3301 89.2509 38.8057C88.7365 39.4584 87.6207 39.8258 85.9103 39.9078V40.3965H101.421V39.9078C100.309 39.793 99.6103 39.3928 99.3264 38.7073C99.1259 38.2022 99.0257 36.9525 99.0257 34.9615V20.5164C100.522 19.2438 101.835 18.6074 102.964 18.6074C103.913 18.6074 104.661 18.9748 105.209 19.7095C105.64 20.313 105.857 21.4086 105.857 22.9895V34.9615C105.857 36.9853 105.757 38.235 105.557 38.7073C105.273 39.3928 104.575 39.793 103.462 39.9078V40.3965H117.951V39.9078C117.102 39.8422 116.471 39.6946 116.056 39.4682L116.053 39.4617Z" fill="#FFA38B"/>
</g>
<defs>
<clipPath id="clip0_514_4820">
<rect width="193" height="41" fill="white"/>
</clipPath>
</defs>
</svg>
